<?xml version="1.0" encoding="UTF-8"?>
<svg id="Layer_1" xmlns="http://www.w3.org/2000/svg" version="1.1" viewBox="0 0 24 24">
  <!-- Generator: Adobe Illustrator 30.0.0, SVG Export Plug-In . SVG Version: 2.1.1 Build 123)  -->
  <defs>
    <style>
      .st0 {
        fill: #fff;
      }

      .st1, .st2 {
        fill: none;
      }

      .st2 {
        stroke: #000;
        stroke-linecap: round;
        stroke-linejoin: round;
      }
    </style>
  </defs>
  <path class="st2" d="M21.9,9.8L14,1.8c-.4-.4-1-.9-2.4,0-1.8,1.3-.8,2-.5,2.3.8.8,7.7,8.2,8.9,9.6.2.3-1.9-2.1-.6-3.7.5-.6,1.7-1.1,2.4-.3.6.7,1,1.7-.3,2.7-2.3,1.9-9.4,7.6-11.7,9.5s-2.6.2-3.3-.6c-.7-.8-2.8-3.2-4.7-5.4-.5-.6-.4-1.8.2-2.3,3.2-2.8,8.5-6.8,10.3-8.4"/>
  <g>
    <path class="st0" d="M23.2,11c0,.4-.4.8-.7,1-.3.2-.6.5-1,.8-.4-.7-.8-1.7-.2-2.4.2-.2.6-.5.9-.5h0c.2,0,.3,0,.5.2.3.3.4.6.4.9Z"/>
    <path class="st0" d="M21.1,8.4c-.5.2-.9.5-1.1.9-.3.4-.5.9-.6,1.3-1.5-1.6-3.3-3.6-4.9-5.2-.5-.5-.9-1-1.3-1.4,0,0,0,0,0-.1,0,0-.1-.1-.2-.2-.6-.7-1.1-1.2-1.3-1.3h-.1c-.1-.2-.3-.5-.3-.5,0,0,0-.3.8-.9,1.1-.8,1.3-.5,1.6-.2l7.4,7.6Z"/>
    <path class="st0" d="M20.1,13.9c-1.3,1.1-3,2.4-4.6,3.7-2.6,2.1-5.2,4.2-6.5,5.3-.9.8-2.1,0-2.6-.5-.5-.5-1.5-1.7-2.6-3-.9-1-1.9-2.1-2.8-3.2,0-.1-.2-.4-.1-.7,0-.4.2-.6.3-.7,2.2-1.9,5.3-4.4,7.8-6.4,1.3-1.1,2.5-2,3.4-2.7.3.3.6.6.9.9,2.3,2.5,5.4,5.8,6.9,7.3Z"/>
  </g>
  <path class="st1" d="M0,0h24v24H0V0Z"/>
</svg>