<?xml version="1.0" encoding="UTF-8"?>
<svg id="Layer_1" xmlns="http://www.w3.org/2000/svg" version="1.1" viewBox="0 0 24 24">
  <!-- Generator: Adobe Illustrator 30.0.0, SVG Export Plug-In . SVG Version: 2.1.1 Build 123)  -->
  <path d="M23.56,9.93c-.44-.6-1.03-.9-1.79-.9H4.83c-.41,0-.74-.33-.74-.74s.33-.74.74-.74h16.27c.31,0,.58-.1.79-.32.21-.21.32-.48.32-.79,0-.31-.11-.58-.32-.79-.21-.21-.48-.32-.79-.32h-9.99l-1.58-1.58c-.2-.2-.44-.36-.71-.47-.27-.11-.55-.17-.85-.17H2.22c-.61,0-1.13.22-1.57.65-.44.43-.65.96-.65,1.57v13.32c0,.61.22,1.13.65,1.57.43.43.96.65,1.57.65h17.55c.48,0,.92-.14,1.32-.43.4-.29.67-.67.82-1.15l2-7.41c.2-.7.09-1.35-.35-1.96Z"/>
</svg>