<?xml version="1.0" encoding="UTF-8"?>
<svg id="Layer_2" data-name="Layer 2" xmlns="http://www.w3.org/2000/svg" viewBox="0 0 22.44 23.23">
  <defs>
    <style>
      .cls-1 {
        fill: #fff;
      }
    </style>
  </defs>
  <g id="Layer_3" data-name="Layer 3">
    <path class="cls-1" d="M20.53,14c0-.66,1.91-1.89,1.91-1.89,0,0-1.94-1.26-1.94-1.94,0-.79-.01-2.06,0-3.07,0-2.54.11-5.01-7.3-7.1,0,0,.61,4.23-1.98,4.23-1.78,0-2.05-2.24-2.05-3.34,0-.52.06-.89.06-.89C1.83,2.09,1.93,4.56,1.94,7.1v3.07c0,.68-1.94,1.94-1.94,1.94,0,0,1.89,1.23,1.89,1.89S.04,15.92.04,15.92c0,0,1.85,1.34,1.85,1.95,0,.23,1.84,2.77,5.31,3.98-.13-.48-.2-1.07-.2-1.8,0-1,.39-1.7,1.16-2.1.64-.32,1.42-.36,2.1-.36h.52c.15.01.3.01.44.01.13,0,.28,0,.43-.01h.52c.89,0,3.26,0,3.26,2.46,0,.73-.07,1.32-.2,1.8,3.47-1.21,5.3-3.75,5.3-3.98,0-.61,1.86-1.95,1.86-1.95,0,0-1.86-1.28-1.86-1.92ZM8.07,15.49c0,.72-.58,1.3-1.3,1.3h-1.17c-1.36-.03-2.43-1.13-2.43-2.5v-1.73c0-1.38,1.11-2.5,2.48-2.5h.21c1.22,0,2.21,1,2.21,2.23v3.2ZM8.15,5.72c-.29-.28-.63-.42-.99-.42-.75,0-1.42.66-1.62,1.62l-.04.2h-1.99v-2.12c0-2.08,4.02-3.58,4.19-3.64l.3-.11.03.32c.12,1.38.39,3.05.54,3.93l.12.74-.54-.52ZM13.75,6.24l.12-.74c.15-.88.41-2.55.54-3.93l.03-.32.3.11c.17.06,4.19,1.56,4.19,3.64v2.12h-1.99l-.04-.2c-.2-.96-.87-1.62-1.62-1.62-.36,0-.7.14-.99.42l-.54.52ZM19.26,14.29c0,1.37-1.07,2.47-2.43,2.5h-1.17c-.72,0-1.3-.58-1.3-1.3v-3.2c0-1.23.99-2.23,2.21-2.23h.21c1.37,0,2.48,1.12,2.48,2.5v1.73Z"/>
    <path class="cls-1" d="M4.11,6.47l.05-1.47c0-1.14,2.04-2.31,3.34-2.86.04.75.14,1.65.3,2.64-.17-.09-.38-.13-.63-.13-.96,0-1.83.73-2.17,1.82h-.87Z"/>
    <path class="cls-1" d="M14.57,20.25c0,.74-.09,1.3-.25,1.72-.03.08-.06.15-.1.22-.03.06-.06.13-.11.18-.04.06-.08.11-.13.17-.13.16-.28.28-.45.37-.06.03-.12.06-.18.09-.06.03-.13.05-.19.07-.14.04-.27.07-.42.1-.14.03-.3.04-.45.05h0c-.16,0-.33.02-.51.02-.18,0-.36,0-.55,0h0c-.19,0-.37,0-.54,0-.18,0-.35,0-.51-.02h0c-.15,0-.31-.03-.45-.05-.15-.03-.29-.05-.42-.1-.06-.02-.13-.04-.19-.07-.06-.03-.12-.05-.18-.09-.24-.13-.44-.3-.6-.57-.04-.04-.06-.1-.09-.15-.04-.07-.07-.14-.1-.22,0-.02,0-.03-.02-.05-.04-.1-.06-.2-.09-.31-.09-.37-.14-.82-.14-1.36,0-.39.08-.69.23-.92.02-.03.04-.05.05-.08.02-.03.05-.05.06-.08.05-.07.12-.13.19-.18,0-.02.03-.03.04-.03.07-.06.14-.1.23-.15h0c.12-.05.24-.1.38-.14.09-.03.18-.04.27-.05v1.03c0,.33.28.61.63.61h2.54c.35,0,.63-.28.63-.61v-1.03c.09,0,.18.03.27.05h0c.14.04.25.09.37.14.12.06.23.13.32.22.1.08.19.18.25.3.04.06.07.12.1.19.05.13.09.28.11.45,0,.09.02.18.02.28Z"/>
    <path class="cls-1" d="M7.28,12.13h-.91c-.33,0-.65.13-.89.37-.22.23-.35.52-.34.8-.1.6-.25,2.01.25,2.61-.83-.13-1.46-.83-1.46-1.7v-1.55c0-.95.77-1.72,1.71-1.72h.19c.72,0,1.32.51,1.44,1.2Z"/>
    <path class="cls-1" d="M18.33,6.47l-.05-1.47c0-1.14-2.04-2.31-3.34-2.86-.04.75-.14,1.65-.3,2.64.17-.09.38-.13.63-.13.96,0,1.83.73,2.17,1.82h.87Z"/>
    <path class="cls-1" d="M15.16,12.13h.91c.33,0,.65.13.89.37.22.23.35.52.34.8.1.6.25,2.01-.25,2.61.83-.13,1.46-.83,1.46-1.7v-1.55c0-.95-.77-1.72-1.71-1.72h-.19c-.72,0-1.32.51-1.44,1.2Z"/>
  </g>
</svg>