<?xml version="1.0" encoding="UTF-8"?>
<svg id="Layer_1" xmlns="http://www.w3.org/2000/svg" version="1.1" viewBox="0 0 995.3 995.3">
  <!-- Generator: Adobe Illustrator 30.0.0, SVG Export Plug-In . SVG Version: 2.1.1 Build 123)  -->
  <defs>
    <style>
      .st0 {
        fill: #fff;
        fill-rule: evenodd;
      }
    </style>
  </defs>
  <path class="st0" d="M29.5,560.5c-24.2,16.5-24.3,41.2,3.1,52.5,70.7,29.3,141.6,58.4,212.5,87.2,119.1-93.2,236.9-188,353.4-284.5,0,0,0,0,.2-.1,22.1-16.5,43.9-33.4,65.5-50.6-101.7,125.1-204.7,249-309,371.9-2.7,3.4-4.7,7.2-5.3,10.1-.7,3-.7,4.6-.7,6.3,1.3,69.8,2.2,139.9,2.5,210.4,0,1.2,0,2.7.8,4,2.8,5.5,26,6.9,26,6.9,0,0,5.1.2,7.3-2h0l31.4-29.7v-1.4,1.4c39.9-40.2,80.6-79.5,122.2-117.9,2.2-1.6,4.6-1.1,7-.9h0c68.9,31,138.8,59.9,209.5,86.4,6.3,2.6,12.3,2.7,19.1-1.2,9.8-5.5,10.6-13.9,11.6-21.6,0-.4,0-.8.2-1.1,42.7-258.2,85.3-517.6,129.3-775.7,1.8-10.9,3.3-23.7-6.4-31.4h0c-4.4-4.2-9.8-5.1-12.4-5.4-11.9-1.7-22.9.6-33.2,7C586.7,242.3,308.5,402.1,29.5,560.5Z"/>
</svg>