<?xml version="1.0" encoding="UTF-8"?>
<svg id="Layer_1" xmlns="http://www.w3.org/2000/svg" version="1.1" viewBox="0 0 24 24">
  <!-- Generator: Adobe Illustrator 30.0.0, SVG Export Plug-In . SVG Version: 2.1.1 Build 123)  -->
  <defs>
    <style>
      .st0 {
        fill: #fff;
        stroke: #fff;
        stroke-miterlimit: 10;
        stroke-width: .2px;
      }
    </style>
  </defs>
  <polygon class="st0" points="7.3 21.3 7.3 16.7 11.3 19 11.3 23.7 7.3 21.3"/>
  <polygon class="st0" points="1.8 18.2 1.8 13.5 5.9 15.9 5.9 20.5 1.8 18.2"/>
  <polygon class="st0" points="1.8 11.9 1.8 7.2 5.9 9.6 5.9 14.2 1.8 11.9"/>
  <polygon class="st0" points="7.3 15.1 7.3 10.4 11.3 12.7 11.3 17.4 7.3 15.1"/>
  <polygon class="st0" points="18.1 15.9 22.2 13.5 22.2 18.2 18.1 20.5 18.1 15.9"/>
  <polygon class="st0" points="12.7 19 16.7 16.7 16.7 21.3 12.7 23.7 12.7 19"/>
  <polygon class="st0" points="12.7 12.7 16.7 10.4 16.7 15.1 12.7 17.4 12.7 12.7"/>
  <polygon class="st0" points="18.1 9.6 22.2 7.2 22.2 11.9 18.1 14.2 18.1 9.6"/>
  <polygon class="st0" points="7.9 9 12 6.6 16 9 12 11.3 7.9 9"/>
  <polygon class="st0" points="2.5 5.8 6.5 3.5 10.6 5.8 6.6 8.2 2.5 5.8"/>
  <polygon class="st0" points="7.9 2.7 12 .3 16.1 2.7 12 5 7.9 2.7"/>
  <polygon class="st0" points="13.4 5.8 17.4 3.5 21.5 5.8 17.4 8.2 13.4 5.8"/>
</svg>